<mxfile host="app.diagrams.net" agent="Mozilla/5.0 (X11; Linux x86_64) AppleWebKit/537.36 (KHTML, like Gecko) Chrome/128.0.0.0 Safari/537.36" version="24.7.12" pages="4">
  <diagram name="第 1 页" id="JcHV4UioXyeyqWVosAlf">
    <mxGraphModel dx="2233" dy="522" grid="1" gridSize="12" guides="1" tooltips="1" connect="1" arrows="1" fold="1" page="1" pageScale="1" pageWidth="1169" pageHeight="827" background="#FFFFFF" math="0" shadow="1">
      <root>
        <mxCell id="0" />
        <mxCell id="1" parent="0" />
        <mxCell id="7w99cEqt98IXrleXAFDB-15" value="" style="group" parent="1" vertex="1" connectable="0">
          <mxGeometry x="-264" y="12" width="894" height="298" as="geometry" />
        </mxCell>
        <mxCell id="Yn3uJeG1cn9pmbK7-plF-13" value="-G “Unix Makefile”" style="text;html=1;strokeColor=none;fillColor=none;align=center;verticalAlign=middle;whiteSpace=wrap;rounded=0;rotation=-15;fontSize=13;" parent="7w99cEqt98IXrleXAFDB-15" vertex="1">
          <mxGeometry x="469" y="48" width="70" height="30" as="geometry" />
        </mxCell>
        <mxCell id="Yn3uJeG1cn9pmbK7-plF-14" value="-G &quot;Ninja&quot;" style="text;html=1;strokeColor=none;fillColor=none;align=center;verticalAlign=middle;whiteSpace=wrap;rounded=0;rotation=25;fontSize=13;" parent="7w99cEqt98IXrleXAFDB-15" vertex="1">
          <mxGeometry x="474" y="158" width="60" height="30" as="geometry" />
        </mxCell>
        <mxCell id="Yn3uJeG1cn9pmbK7-plF-16" value="" style="endArrow=classic;html=1;rounded=0;exitX=0.975;exitY=0.577;exitDx=0;exitDy=0;exitPerimeter=0;" parent="7w99cEqt98IXrleXAFDB-15" source="7w99cEqt98IXrleXAFDB-8" edge="1">
          <mxGeometry relative="1" as="geometry">
            <mxPoint x="684" y="78" as="sourcePoint" />
            <mxPoint x="784" y="107" as="targetPoint" />
            <Array as="points" />
          </mxGeometry>
        </mxCell>
        <mxCell id="Yn3uJeG1cn9pmbK7-plF-18" value="" style="endArrow=classic;html=1;rounded=0;entryX=0.256;entryY=0.846;entryDx=0;entryDy=0;entryPerimeter=0;" parent="7w99cEqt98IXrleXAFDB-15" target="Yn3uJeG1cn9pmbK7-plF-30" edge="1">
          <mxGeometry relative="1" as="geometry">
            <mxPoint x="672" y="180" as="sourcePoint" />
            <mxPoint x="784" y="148" as="targetPoint" />
          </mxGeometry>
        </mxCell>
        <mxCell id="Yn3uJeG1cn9pmbK7-plF-21" value="&lt;b&gt;&lt;font style=&quot;font-size: 14px;&quot;&gt;make&lt;/font&gt;&lt;/b&gt;" style="text;html=1;strokeColor=none;fillColor=none;align=center;verticalAlign=middle;whiteSpace=wrap;rounded=0;rotation=25;" parent="7w99cEqt98IXrleXAFDB-15" vertex="1">
          <mxGeometry x="714" y="63" width="60" height="30" as="geometry" />
        </mxCell>
        <mxCell id="Yn3uJeG1cn9pmbK7-plF-22" value="&lt;b style=&quot;font-size: 14px;&quot;&gt;ninja&lt;/b&gt;" style="text;html=1;strokeColor=none;fillColor=none;align=center;verticalAlign=middle;whiteSpace=wrap;rounded=0;rotation=-15;fontSize=14;" parent="7w99cEqt98IXrleXAFDB-15" vertex="1">
          <mxGeometry x="708" y="158" width="60" height="30" as="geometry" />
        </mxCell>
        <mxCell id="Yn3uJeG1cn9pmbK7-plF-24" value="" style="edgeStyle=orthogonalEdgeStyle;rounded=0;orthogonalLoop=1;jettySize=auto;html=1;" parent="7w99cEqt98IXrleXAFDB-15" source="6qFaOdgSsqMaid08nfDN-1" edge="1">
          <mxGeometry relative="1" as="geometry">
            <mxPoint x="344" y="118" as="targetPoint" />
            <mxPoint x="294" y="118" as="sourcePoint" />
          </mxGeometry>
        </mxCell>
        <mxCell id="Yn3uJeG1cn9pmbK7-plF-27" value="" style="edgeStyle=orthogonalEdgeStyle;rounded=0;orthogonalLoop=1;jettySize=auto;html=1;exitX=0.979;exitY=0.503;exitDx=0;exitDy=0;exitPerimeter=0;" parent="7w99cEqt98IXrleXAFDB-15" source="6qFaOdgSsqMaid08nfDN-2" edge="1">
          <mxGeometry relative="1" as="geometry">
            <mxPoint x="344" y="248" as="targetPoint" />
            <mxPoint x="294" y="248" as="sourcePoint" />
          </mxGeometry>
        </mxCell>
        <mxCell id="Yn3uJeG1cn9pmbK7-plF-28" value="&lt;font style=&quot;font-size: 14px;&quot;&gt;cmake&lt;/font&gt;" style="shape=hexagon;perimeter=hexagonPerimeter2;whiteSpace=wrap;html=1;fixedSize=1;fillColor=#dae8fc;strokeColor=#6c8ebf;" parent="7w99cEqt98IXrleXAFDB-15" vertex="1">
          <mxGeometry x="344" y="78" width="120" height="80" as="geometry" />
        </mxCell>
        <mxCell id="Yn3uJeG1cn9pmbK7-plF-29" value="&lt;font style=&quot;font-size: 14px;&quot;&gt;xmake&lt;/font&gt;" style="shape=hexagon;perimeter=hexagonPerimeter2;whiteSpace=wrap;html=1;fixedSize=1;fillColor=#dae8fc;strokeColor=#6c8ebf;" parent="7w99cEqt98IXrleXAFDB-15" vertex="1">
          <mxGeometry x="344" y="208" width="120" height="80" as="geometry" />
        </mxCell>
        <mxCell id="Yn3uJeG1cn9pmbK7-plF-30" value="&lt;font style=&quot;font-size: 14px;&quot;&gt;Build&lt;br&gt;Program&lt;/font&gt;" style="ellipse;shape=cloud;whiteSpace=wrap;html=1;fillColor=#d5e8d4;strokeColor=#82b366;" parent="7w99cEqt98IXrleXAFDB-15" vertex="1">
          <mxGeometry x="774" y="78" width="120" height="80" as="geometry" />
        </mxCell>
        <mxCell id="Yn3uJeG1cn9pmbK7-plF-31" value="" style="endArrow=classic;html=1;rounded=0;exitX=1;exitY=0.5;exitDx=0;exitDy=0;entryX=0.55;entryY=0.95;entryDx=0;entryDy=0;entryPerimeter=0;" parent="7w99cEqt98IXrleXAFDB-15" source="Yn3uJeG1cn9pmbK7-plF-29" target="Yn3uJeG1cn9pmbK7-plF-30" edge="1">
          <mxGeometry relative="1" as="geometry">
            <mxPoint x="504" y="248" as="sourcePoint" />
            <mxPoint x="834" y="248" as="targetPoint" />
            <Array as="points">
              <mxPoint x="840" y="248" />
            </Array>
          </mxGeometry>
        </mxCell>
        <mxCell id="Yn3uJeG1cn9pmbK7-plF-33" value="Developers" style="shape=umlActor;verticalLabelPosition=bottom;verticalAlign=top;html=1;outlineConnect=0;" parent="7w99cEqt98IXrleXAFDB-15" vertex="1">
          <mxGeometry y="148" width="50" height="70" as="geometry" />
        </mxCell>
        <mxCell id="Yn3uJeG1cn9pmbK7-plF-36" value="" style="endArrow=classic;html=1;rounded=0;entryX=0;entryY=0.5;entryDx=0;entryDy=0;" parent="7w99cEqt98IXrleXAFDB-15" edge="1">
          <mxGeometry relative="1" as="geometry">
            <mxPoint x="44" y="188" as="sourcePoint" />
            <mxPoint x="174" y="118" as="targetPoint" />
          </mxGeometry>
        </mxCell>
        <mxCell id="Yn3uJeG1cn9pmbK7-plF-38" value="" style="endArrow=classic;html=1;rounded=0;entryX=0.019;entryY=0.617;entryDx=0;entryDy=0;entryPerimeter=0;" parent="7w99cEqt98IXrleXAFDB-15" edge="1">
          <mxGeometry relative="1" as="geometry">
            <mxPoint x="44" y="188" as="sourcePoint" />
            <mxPoint x="176.27999999999997" y="255.01999999999998" as="targetPoint" />
          </mxGeometry>
        </mxCell>
        <mxCell id="6qFaOdgSsqMaid08nfDN-1" value="&lt;font style=&quot;font-size: 13px;&quot;&gt;CMakeList.txt&lt;/font&gt;" style="shape=note;whiteSpace=wrap;html=1;backgroundOutline=1;darkOpacity=0.05;fillColor=#f5f5f5;fontColor=#333333;strokeColor=#666666;" parent="7w99cEqt98IXrleXAFDB-15" vertex="1">
          <mxGeometry x="174" y="68" width="80" height="100" as="geometry" />
        </mxCell>
        <mxCell id="6qFaOdgSsqMaid08nfDN-2" value="&lt;font style=&quot;font-size: 15px;&quot;&gt;xmake.lua&lt;/font&gt;" style="shape=note;whiteSpace=wrap;html=1;backgroundOutline=1;darkOpacity=0.05;fillColor=#f5f5f5;fontColor=#333333;strokeColor=#666666;" parent="7w99cEqt98IXrleXAFDB-15" vertex="1">
          <mxGeometry x="174" y="198" width="80" height="100" as="geometry" />
        </mxCell>
        <mxCell id="7w99cEqt98IXrleXAFDB-8" value="&lt;font style=&quot;font-size: 14px;&quot;&gt;Makefile&lt;/font&gt;" style="shape=note;whiteSpace=wrap;html=1;backgroundOutline=1;darkOpacity=0.05;fillColor=#f5f5f5;strokeColor=#666666;fontColor=#333333;" parent="7w99cEqt98IXrleXAFDB-15" vertex="1">
          <mxGeometry x="588" width="80" height="100" as="geometry" />
        </mxCell>
        <mxCell id="Yn3uJeG1cn9pmbK7-plF-7" value="" style="endArrow=classic;html=1;rounded=0;exitX=1;exitY=0.25;exitDx=0;exitDy=0;" parent="7w99cEqt98IXrleXAFDB-15" source="Yn3uJeG1cn9pmbK7-plF-28" target="7w99cEqt98IXrleXAFDB-8" edge="1">
          <mxGeometry relative="1" as="geometry">
            <mxPoint x="464" y="108" as="sourcePoint" />
            <mxPoint x="564" y="78" as="targetPoint" />
            <Array as="points" />
          </mxGeometry>
        </mxCell>
        <mxCell id="7w99cEqt98IXrleXAFDB-9" value="&lt;font style=&quot;font-size: 14px;&quot;&gt;build.ninja&lt;/font&gt;" style="shape=note;whiteSpace=wrap;html=1;backgroundOutline=1;darkOpacity=0.05;fillColor=#f5f5f5;strokeColor=#666666;fontColor=#333333;" parent="7w99cEqt98IXrleXAFDB-15" vertex="1">
          <mxGeometry x="588" y="118" width="80" height="100" as="geometry" />
        </mxCell>
        <mxCell id="Yn3uJeG1cn9pmbK7-plF-9" value="" style="endArrow=classic;html=1;rounded=0;entryX=-0.008;entryY=0.71;entryDx=0;entryDy=0;exitX=1;exitY=0.75;exitDx=0;exitDy=0;entryPerimeter=0;" parent="7w99cEqt98IXrleXAFDB-15" source="Yn3uJeG1cn9pmbK7-plF-28" target="7w99cEqt98IXrleXAFDB-9" edge="1">
          <mxGeometry relative="1" as="geometry">
            <mxPoint x="464" y="133" as="sourcePoint" />
            <mxPoint x="564" y="158" as="targetPoint" />
            <Array as="points" />
          </mxGeometry>
        </mxCell>
        <mxCell id="JdyV_jT9KwcHU5O-5mEy-13" value="" style="group" parent="1" vertex="1" connectable="0">
          <mxGeometry x="-552" y="364" width="1488" height="320" as="geometry" />
        </mxCell>
        <mxCell id="JdyV_jT9KwcHU5O-5mEy-3" value="&lt;b&gt;运行&lt;/b&gt;" style="rounded=0;whiteSpace=wrap;html=1;fillColor=#f8cecc;strokeColor=#b85450;container=0;" parent="JdyV_jT9KwcHU5O-5mEy-13" vertex="1">
          <mxGeometry x="1368" y="30" width="120" height="60" as="geometry" />
        </mxCell>
        <mxCell id="JdyV_jT9KwcHU5O-5mEy-8" value="&lt;b&gt;运行&lt;/b&gt;" style="whiteSpace=wrap;html=1;fillColor=#f8cecc;strokeColor=#b85450;rounded=0;container=0;" parent="JdyV_jT9KwcHU5O-5mEy-13" vertex="1">
          <mxGeometry x="610" y="196" width="120" height="60" as="geometry" />
        </mxCell>
        <mxCell id="JdyV_jT9KwcHU5O-5mEy-9" value="" style="edgeStyle=orthogonalEdgeStyle;rounded=0;orthogonalLoop=1;jettySize=auto;html=1;" parent="JdyV_jT9KwcHU5O-5mEy-13" source="7w99cEqt98IXrleXAFDB-4" target="JdyV_jT9KwcHU5O-5mEy-8" edge="1">
          <mxGeometry relative="1" as="geometry" />
        </mxCell>
        <mxCell id="JdyV_jT9KwcHU5O-5mEy-10" value="" style="edgeStyle=orthogonalEdgeStyle;rounded=0;orthogonalLoop=1;jettySize=auto;html=1;" parent="JdyV_jT9KwcHU5O-5mEy-13" source="6qFaOdgSsqMaid08nfDN-13" target="JdyV_jT9KwcHU5O-5mEy-3" edge="1">
          <mxGeometry relative="1" as="geometry" />
        </mxCell>
        <mxCell id="7w99cEqt98IXrleXAFDB-1" value="&lt;h1&gt;编译型语言&lt;/h1&gt;&lt;p&gt;源代码在执行之前会被&lt;b&gt;编译器(Compiler)&lt;/b&gt;完整地编译成机器码或者中间代码。编译过程将整个源代码文件转换成目标代码文件（通常是二进制文件），然后执行目标代码。例如C/C++、Rust等。&lt;br&gt;&lt;/p&gt;" style="text;html=1;strokeColor=none;fillColor=none;spacing=5;spacingTop=-20;whiteSpace=wrap;overflow=hidden;rounded=0;container=0;" parent="JdyV_jT9KwcHU5O-5mEy-13" vertex="1">
          <mxGeometry y="12" width="192" height="140" as="geometry" />
        </mxCell>
        <mxCell id="7w99cEqt98IXrleXAFDB-2" value="&lt;h1&gt;解释型语言&lt;/h1&gt;&lt;p style=&quot;&quot;&gt;源代码直接由&lt;span style=&quot;box-sizing: border-box; font-weight: bolder; color: rgb(33, 37, 41); font-family: -apple-system, BlinkMacSystemFont, &amp;quot;Segoe UI&amp;quot;, Roboto, &amp;quot;Helvetica Neue&amp;quot;, Arial, &amp;quot;Noto Sans&amp;quot;, &amp;quot;Liberation Sans&amp;quot;, sans-serif, &amp;quot;Apple Color Emoji&amp;quot;, &amp;quot;Segoe UI Emoji&amp;quot;, &amp;quot;Segoe UI Symbol&amp;quot;, &amp;quot;Noto Color Emoji&amp;quot;;&quot;&gt;解释器(Interpreter)&lt;/span&gt;&lt;span style=&quot;color: rgb(33, 37, 41); font-family: -apple-system, BlinkMacSystemFont, &amp;quot;Segoe UI&amp;quot;, Roboto, &amp;quot;Helvetica Neue&amp;quot;, Arial, &amp;quot;Noto Sans&amp;quot;, &amp;quot;Liberation Sans&amp;quot;, sans-serif, &amp;quot;Apple Color Emoji&amp;quot;, &amp;quot;Segoe UI Emoji&amp;quot;, &amp;quot;Segoe UI Symbol&amp;quot;, &amp;quot;Noto Color Emoji&amp;quot;;&quot;&gt;解释运行。解释器会逐行读取源代码，并且在运行时将其翻译成机器码或者执行其它操作。例如Python、JavaScript、Ruby等。&lt;/span&gt;&lt;/p&gt;" style="text;html=1;strokeColor=none;fillColor=none;spacing=5;spacingTop=-20;whiteSpace=wrap;overflow=hidden;rounded=0;container=0;" parent="JdyV_jT9KwcHU5O-5mEy-13" vertex="1">
          <mxGeometry y="184" width="192" height="136" as="geometry" />
        </mxCell>
        <mxCell id="6qFaOdgSsqMaid08nfDN-5" value="" style="edgeStyle=orthogonalEdgeStyle;rounded=0;orthogonalLoop=1;jettySize=auto;html=1;" parent="JdyV_jT9KwcHU5O-5mEy-13" target="6qFaOdgSsqMaid08nfDN-4" edge="1">
          <mxGeometry relative="1" as="geometry">
            <mxPoint x="320" y="60" as="sourcePoint" />
          </mxGeometry>
        </mxCell>
        <mxCell id="6qFaOdgSsqMaid08nfDN-4" value="&lt;b&gt;预处理&lt;br&gt;（Pre-Processing）&lt;/b&gt;" style="rounded=1;whiteSpace=wrap;html=1;fillColor=#ffe6cc;strokeColor=#d79b00;gradientColor=none;container=0;" parent="JdyV_jT9KwcHU5O-5mEy-13" vertex="1">
          <mxGeometry x="410" y="30" width="120" height="60" as="geometry" />
        </mxCell>
        <mxCell id="6qFaOdgSsqMaid08nfDN-20" value="" style="edgeStyle=orthogonalEdgeStyle;rounded=0;orthogonalLoop=1;jettySize=auto;html=1;" parent="JdyV_jT9KwcHU5O-5mEy-13" source="6qFaOdgSsqMaid08nfDN-6" edge="1">
          <mxGeometry relative="1" as="geometry">
            <mxPoint x="790" y="60" as="targetPoint" />
          </mxGeometry>
        </mxCell>
        <mxCell id="6qFaOdgSsqMaid08nfDN-6" value="&lt;b&gt;编译&lt;br&gt;（Compilation）&lt;/b&gt;" style="rounded=1;whiteSpace=wrap;html=1;fillColor=#ffe6cc;strokeColor=#d79b00;container=0;" parent="JdyV_jT9KwcHU5O-5mEy-13" vertex="1">
          <mxGeometry x="600" y="30" width="120" height="60" as="geometry" />
        </mxCell>
        <mxCell id="6qFaOdgSsqMaid08nfDN-7" value="" style="edgeStyle=orthogonalEdgeStyle;rounded=0;orthogonalLoop=1;jettySize=auto;html=1;" parent="JdyV_jT9KwcHU5O-5mEy-13" source="6qFaOdgSsqMaid08nfDN-4" target="6qFaOdgSsqMaid08nfDN-6" edge="1">
          <mxGeometry relative="1" as="geometry" />
        </mxCell>
        <mxCell id="6qFaOdgSsqMaid08nfDN-8" value="&lt;b&gt;链接&lt;br&gt;（Linking）&lt;/b&gt;" style="rounded=1;whiteSpace=wrap;html=1;fillColor=#ffe6cc;strokeColor=#d79b00;container=0;" parent="JdyV_jT9KwcHU5O-5mEy-13" vertex="1">
          <mxGeometry x="980" y="30" width="120" height="60" as="geometry" />
        </mxCell>
        <mxCell id="6qFaOdgSsqMaid08nfDN-12" value="源代码&lt;br&gt;（Source）" style="shape=note;whiteSpace=wrap;html=1;backgroundOutline=1;darkOpacity=0.05;fillColor=#f5f5f5;fontColor=#333333;strokeColor=#666666;container=0;" parent="JdyV_jT9KwcHU5O-5mEy-13" vertex="1">
          <mxGeometry x="240" width="80" height="100" as="geometry" />
        </mxCell>
        <mxCell id="6qFaOdgSsqMaid08nfDN-13" value="可执行程序&lt;br&gt;（Executed Program）" style="ellipse;shape=cloud;whiteSpace=wrap;html=1;fillColor=#d5e8d4;strokeColor=#82b366;container=0;" parent="JdyV_jT9KwcHU5O-5mEy-13" vertex="1">
          <mxGeometry x="1164" y="20" width="132" height="80" as="geometry" />
        </mxCell>
        <mxCell id="6qFaOdgSsqMaid08nfDN-22" style="edgeStyle=orthogonalEdgeStyle;rounded=0;orthogonalLoop=1;jettySize=auto;html=1;exitX=1;exitY=0.5;exitDx=0;exitDy=0;" parent="JdyV_jT9KwcHU5O-5mEy-13" source="6qFaOdgSsqMaid08nfDN-8" target="6qFaOdgSsqMaid08nfDN-13" edge="1">
          <mxGeometry relative="1" as="geometry">
            <mxPoint x="1113" y="60" as="sourcePoint" />
            <mxPoint x="1188" y="56" as="targetPoint" />
          </mxGeometry>
        </mxCell>
        <mxCell id="7w99cEqt98IXrleXAFDB-3" value="源代码&lt;br&gt;（Source）" style="shape=note;whiteSpace=wrap;html=1;backgroundOutline=1;darkOpacity=0.05;fillColor=#f5f5f5;fontColor=#333333;strokeColor=#666666;container=0;" parent="JdyV_jT9KwcHU5O-5mEy-13" vertex="1">
          <mxGeometry x="240" y="176" width="80" height="100" as="geometry" />
        </mxCell>
        <mxCell id="7w99cEqt98IXrleXAFDB-4" value="&lt;b&gt;解释&lt;br&gt;（Interpret）&lt;/b&gt;" style="whiteSpace=wrap;html=1;fillColor=#ffe6cc;strokeColor=#d79b00;rounded=1;container=0;" parent="JdyV_jT9KwcHU5O-5mEy-13" vertex="1">
          <mxGeometry x="410" y="196" width="120" height="60" as="geometry" />
        </mxCell>
        <mxCell id="7w99cEqt98IXrleXAFDB-5" value="" style="edgeStyle=orthogonalEdgeStyle;rounded=0;orthogonalLoop=1;jettySize=auto;html=1;" parent="JdyV_jT9KwcHU5O-5mEy-13" source="7w99cEqt98IXrleXAFDB-3" target="7w99cEqt98IXrleXAFDB-4" edge="1">
          <mxGeometry relative="1" as="geometry" />
        </mxCell>
        <mxCell id="7w99cEqt98IXrleXAFDB-7" style="edgeStyle=orthogonalEdgeStyle;rounded=0;orthogonalLoop=1;jettySize=auto;html=1;exitX=1;exitY=0.5;exitDx=0;exitDy=0;entryX=0;entryY=0.5;entryDx=0;entryDy=0;" parent="JdyV_jT9KwcHU5O-5mEy-13" source="7w99cEqt98IXrleXAFDB-6" target="6qFaOdgSsqMaid08nfDN-8" edge="1">
          <mxGeometry relative="1" as="geometry" />
        </mxCell>
        <mxCell id="7w99cEqt98IXrleXAFDB-6" value="&lt;b&gt;汇编&lt;br&gt;（Assembly）&lt;/b&gt;" style="rounded=1;whiteSpace=wrap;html=1;fillColor=#ffe6cc;strokeColor=#d79b00;container=0;" parent="JdyV_jT9KwcHU5O-5mEy-13" vertex="1">
          <mxGeometry x="792" y="30" width="120" height="60" as="geometry" />
        </mxCell>
        <mxCell id="r6IZSGKCvhaIYeYmbxvg-1" value="&lt;div style=&quot;text-align: left;&quot;&gt;&lt;span style=&quot;font-size: 14px; background-color: initial;&quot;&gt;对于编译型语言, 源代码一经编译过程最终生成可执行文件后, 便可直接执行, 缺点是源代码每次更新时需要重新编译生成, 而编译过程通常比较耗时.&lt;/span&gt;&lt;/div&gt;&lt;font style=&quot;font-size: 14px;&quot;&gt;&lt;div style=&quot;text-align: left;&quot;&gt;&lt;span style=&quot;background-color: initial;&quot;&gt;对于解释型语言, 源代码每次运行都需要依赖解释器解释才能运行, 优点是相较于编译型语言,能够及时感知源代码的更新进行解释运行.&lt;/span&gt;&lt;/div&gt;&lt;/font&gt;" style="text;html=1;align=center;verticalAlign=middle;whiteSpace=wrap;rounded=0;" vertex="1" parent="1">
          <mxGeometry x="-584" y="708" width="948" height="12" as="geometry" />
        </mxCell>
        <mxCell id="r6IZSGKCvhaIYeYmbxvg-2" value="&lt;font style=&quot;font-size: 14px;&quot;&gt;因此,编译型语言适合生产应用程序,源代码更新周期短, 启动快.&lt;br&gt;而解析型语言则适合网页端开发, 更新十分频繁, 加载时间较长&lt;/font&gt;" style="text;html=1;align=left;verticalAlign=middle;whiteSpace=wrap;rounded=0;" vertex="1" parent="1">
          <mxGeometry x="-564" y="768" width="636" height="12" as="geometry" />
        </mxCell>
      </root>
    </mxGraphModel>
  </diagram>
  <diagram id="wxB5nqAfp5eWNUhtXlEy" name="第 2 页">
    <mxGraphModel dx="2233" dy="-305" grid="1" gridSize="12" guides="1" tooltips="1" connect="1" arrows="1" fold="1" page="1" pageScale="1" pageWidth="1169" pageHeight="827" math="0" shadow="0">
      <root>
        <mxCell id="0" />
        <mxCell id="1" parent="0" />
        <mxCell id="D1_pvNNra4WwdeO3CE8A-1" value="GNU-ToolChain" style="swimlane;fillColor=#dae8fc;strokeColor=#6c8ebf;labelBackgroundColor=none;" parent="1" vertex="1">
          <mxGeometry x="96" y="936" width="215.5" height="145" as="geometry" />
        </mxCell>
        <mxCell id="D1_pvNNra4WwdeO3CE8A-2" value="&lt;font style=&quot;font-size: 14px;&quot;&gt;Compiler：gcc/g++&lt;/font&gt;" style="whiteSpace=wrap;html=1;rounded=1;arcSize=50;align=center;verticalAlign=middle;strokeWidth=1;autosize=1;spacing=4;treeFolding=1;treeMoving=1;newEdgeStyle={&quot;edgeStyle&quot;:&quot;entityRelationEdgeStyle&quot;,&quot;startArrow&quot;:&quot;none&quot;,&quot;endArrow&quot;:&quot;none&quot;,&quot;segment&quot;:10,&quot;curved&quot;:1,&quot;sourcePerimeterSpacing&quot;:0,&quot;targetPerimeterSpacing&quot;:0};" parent="D1_pvNNra4WwdeO3CE8A-1" vertex="1">
          <mxGeometry x="-1" y="23" width="160" height="30" as="geometry" />
        </mxCell>
        <mxCell id="D1_pvNNra4WwdeO3CE8A-3" value="&lt;font style=&quot;font-size: 14px;&quot;&gt;Linker：lld&lt;/font&gt;" style="whiteSpace=wrap;html=1;rounded=1;arcSize=50;align=center;verticalAlign=middle;strokeWidth=1;autosize=1;spacing=4;treeFolding=1;treeMoving=1;newEdgeStyle={&quot;edgeStyle&quot;:&quot;entityRelationEdgeStyle&quot;,&quot;startArrow&quot;:&quot;none&quot;,&quot;endArrow&quot;:&quot;none&quot;,&quot;segment&quot;:10,&quot;curved&quot;:1,&quot;sourcePerimeterSpacing&quot;:0,&quot;targetPerimeterSpacing&quot;:0};" parent="D1_pvNNra4WwdeO3CE8A-1" vertex="1">
          <mxGeometry x="-1" y="53" width="110" height="30" as="geometry" />
        </mxCell>
        <mxCell id="D1_pvNNra4WwdeO3CE8A-4" value="&lt;font style=&quot;font-size: 14px;&quot;&gt;Assembler：llvm-as&lt;/font&gt;" style="whiteSpace=wrap;html=1;rounded=1;arcSize=50;align=center;verticalAlign=middle;strokeWidth=1;autosize=1;spacing=4;treeFolding=1;treeMoving=1;newEdgeStyle={&quot;edgeStyle&quot;:&quot;entityRelationEdgeStyle&quot;,&quot;startArrow&quot;:&quot;none&quot;,&quot;endArrow&quot;:&quot;none&quot;,&quot;segment&quot;:10,&quot;curved&quot;:1,&quot;sourcePerimeterSpacing&quot;:0,&quot;targetPerimeterSpacing&quot;:0};" parent="D1_pvNNra4WwdeO3CE8A-1" vertex="1">
          <mxGeometry x="-1" y="83" width="170" height="30" as="geometry" />
        </mxCell>
        <mxCell id="D1_pvNNra4WwdeO3CE8A-5" value="&lt;font style=&quot;font-size: 14px;&quot;&gt;Debugger：lldb&lt;/font&gt;" style="whiteSpace=wrap;html=1;rounded=1;arcSize=50;align=center;verticalAlign=middle;strokeWidth=1;autosize=1;spacing=4;treeFolding=1;treeMoving=1;newEdgeStyle={&quot;edgeStyle&quot;:&quot;entityRelationEdgeStyle&quot;,&quot;startArrow&quot;:&quot;none&quot;,&quot;endArrow&quot;:&quot;none&quot;,&quot;segment&quot;:10,&quot;curved&quot;:1,&quot;sourcePerimeterSpacing&quot;:0,&quot;targetPerimeterSpacing&quot;:0};" parent="D1_pvNNra4WwdeO3CE8A-1" vertex="1">
          <mxGeometry x="-1" y="113" width="140" height="30" as="geometry" />
        </mxCell>
        <mxCell id="D1_pvNNra4WwdeO3CE8A-6" style="edgeStyle=entityRelationEdgeStyle;rounded=0;orthogonalLoop=1;jettySize=auto;html=1;startArrow=none;endArrow=none;segment=10;curved=1;sourcePerimeterSpacing=0;targetPerimeterSpacing=0;exitX=0.75;exitY=1;exitDx=0;exitDy=0;entryX=0.867;entryY=0.978;entryDx=0;entryDy=0;entryPerimeter=0;" parent="D1_pvNNra4WwdeO3CE8A-1" source="D1_pvNNra4WwdeO3CE8A-3" target="D1_pvNNra4WwdeO3CE8A-3" edge="1">
          <mxGeometry relative="1" as="geometry" />
        </mxCell>
        <mxCell id="D1_pvNNra4WwdeO3CE8A-7" value="Language Server Procotol(LSP)" style="swimlane;labelBackgroundColor=none;fillColor=#f8cecc;strokeColor=#b85450;" parent="1" vertex="1">
          <mxGeometry x="-192" y="948" width="207.5" height="120" as="geometry" />
        </mxCell>
        <mxCell id="D1_pvNNra4WwdeO3CE8A-8" value="clangd" style="whiteSpace=wrap;html=1;rounded=1;arcSize=50;align=center;verticalAlign=middle;strokeWidth=1;autosize=1;spacing=4;treeFolding=1;treeMoving=1;newEdgeStyle={&quot;edgeStyle&quot;:&quot;entityRelationEdgeStyle&quot;,&quot;startArrow&quot;:&quot;none&quot;,&quot;endArrow&quot;:&quot;none&quot;,&quot;segment&quot;:10,&quot;curved&quot;:1,&quot;sourcePerimeterSpacing&quot;:0,&quot;targetPerimeterSpacing&quot;:0};" parent="D1_pvNNra4WwdeO3CE8A-7" vertex="1">
          <mxGeometry y="60" width="80" height="30" as="geometry" />
        </mxCell>
        <mxCell id="D1_pvNNra4WwdeO3CE8A-9" value="ccls" style="whiteSpace=wrap;html=1;rounded=1;arcSize=50;align=center;verticalAlign=middle;strokeWidth=1;autosize=1;spacing=4;treeFolding=1;treeMoving=1;newEdgeStyle={&quot;edgeStyle&quot;:&quot;entityRelationEdgeStyle&quot;,&quot;startArrow&quot;:&quot;none&quot;,&quot;endArrow&quot;:&quot;none&quot;,&quot;segment&quot;:10,&quot;curved&quot;:1,&quot;sourcePerimeterSpacing&quot;:0,&quot;targetPerimeterSpacing&quot;:0};" parent="D1_pvNNra4WwdeO3CE8A-7" vertex="1">
          <mxGeometry y="30" width="70" height="30" as="geometry" />
        </mxCell>
        <mxCell id="D1_pvNNra4WwdeO3CE8A-10" value="cquery" style="whiteSpace=wrap;html=1;rounded=1;arcSize=50;align=center;verticalAlign=middle;strokeWidth=1;autosize=1;spacing=4;treeFolding=1;treeMoving=1;newEdgeStyle={&quot;edgeStyle&quot;:&quot;entityRelationEdgeStyle&quot;,&quot;startArrow&quot;:&quot;none&quot;,&quot;endArrow&quot;:&quot;none&quot;,&quot;segment&quot;:10,&quot;curved&quot;:1,&quot;sourcePerimeterSpacing&quot;:0,&quot;targetPerimeterSpacing&quot;:0};" parent="D1_pvNNra4WwdeO3CE8A-7" vertex="1">
          <mxGeometry y="90" width="80" height="30" as="geometry" />
        </mxCell>
        <mxCell id="D1_pvNNra4WwdeO3CE8A-11" value="" style="group" parent="1" vertex="1" connectable="0">
          <mxGeometry x="384" y="936" width="265" height="146" as="geometry" />
        </mxCell>
        <mxCell id="D1_pvNNra4WwdeO3CE8A-12" value="&lt;font style=&quot;font-size: 14px;&quot;&gt;Compiler：clang/clang++&lt;/font&gt;" style="whiteSpace=wrap;html=1;rounded=1;arcSize=50;align=center;verticalAlign=middle;strokeWidth=1;autosize=1;spacing=4;treeFolding=1;treeMoving=1;newEdgeStyle={&quot;edgeStyle&quot;:&quot;entityRelationEdgeStyle&quot;,&quot;startArrow&quot;:&quot;none&quot;,&quot;endArrow&quot;:&quot;none&quot;,&quot;segment&quot;:10,&quot;curved&quot;:1,&quot;sourcePerimeterSpacing&quot;:0,&quot;targetPerimeterSpacing&quot;:0};" parent="D1_pvNNra4WwdeO3CE8A-11" vertex="1">
          <mxGeometry y="25" width="200" height="30" as="geometry" />
        </mxCell>
        <mxCell id="D1_pvNNra4WwdeO3CE8A-13" value="&lt;font style=&quot;font-size: 14px;&quot;&gt;Linker：ld&lt;/font&gt;" style="whiteSpace=wrap;html=1;rounded=1;arcSize=50;align=center;verticalAlign=middle;strokeWidth=1;autosize=1;spacing=4;treeFolding=1;treeMoving=1;newEdgeStyle={&quot;edgeStyle&quot;:&quot;entityRelationEdgeStyle&quot;,&quot;startArrow&quot;:&quot;none&quot;,&quot;endArrow&quot;:&quot;none&quot;,&quot;segment&quot;:10,&quot;curved&quot;:1,&quot;sourcePerimeterSpacing&quot;:0,&quot;targetPerimeterSpacing&quot;:0};" parent="D1_pvNNra4WwdeO3CE8A-11" vertex="1">
          <mxGeometry y="55" width="110" height="30" as="geometry" />
        </mxCell>
        <mxCell id="D1_pvNNra4WwdeO3CE8A-14" value="&lt;font style=&quot;font-size: 14px;&quot;&gt;Assembler：as&lt;/font&gt;" style="whiteSpace=wrap;html=1;rounded=1;arcSize=50;align=center;verticalAlign=middle;strokeWidth=1;autosize=1;spacing=4;treeFolding=1;treeMoving=1;newEdgeStyle={&quot;edgeStyle&quot;:&quot;entityRelationEdgeStyle&quot;,&quot;startArrow&quot;:&quot;none&quot;,&quot;endArrow&quot;:&quot;none&quot;,&quot;segment&quot;:10,&quot;curved&quot;:1,&quot;sourcePerimeterSpacing&quot;:0,&quot;targetPerimeterSpacing&quot;:0};" parent="D1_pvNNra4WwdeO3CE8A-11" vertex="1">
          <mxGeometry y="85" width="140" height="30" as="geometry" />
        </mxCell>
        <mxCell id="D1_pvNNra4WwdeO3CE8A-15" value="LLVM-ToolChain" style="swimlane;fillColor=#dae8fc;strokeColor=#6c8ebf;startSize=25;" parent="D1_pvNNra4WwdeO3CE8A-11" vertex="1">
          <mxGeometry x="1" width="264" height="146" as="geometry" />
        </mxCell>
        <mxCell id="D1_pvNNra4WwdeO3CE8A-16" value="&lt;font style=&quot;font-size: 14px;&quot;&gt;Debugger：gdb&lt;/font&gt;" style="whiteSpace=wrap;html=1;rounded=1;arcSize=50;align=center;verticalAlign=middle;strokeWidth=1;autosize=1;spacing=4;treeFolding=1;treeMoving=1;newEdgeStyle={&quot;edgeStyle&quot;:&quot;entityRelationEdgeStyle&quot;,&quot;startArrow&quot;:&quot;none&quot;,&quot;endArrow&quot;:&quot;none&quot;,&quot;segment&quot;:10,&quot;curved&quot;:1,&quot;sourcePerimeterSpacing&quot;:0,&quot;targetPerimeterSpacing&quot;:0};" parent="D1_pvNNra4WwdeO3CE8A-11" vertex="1">
          <mxGeometry y="115" width="140" height="30" as="geometry" />
        </mxCell>
      </root>
    </mxGraphModel>
  </diagram>
  <diagram id="WgjsODm2Esy9vwLbGNW9" name="第 3 页">
    <mxGraphModel dx="2233" dy="522" grid="1" gridSize="10" guides="1" tooltips="1" connect="1" arrows="1" fold="1" page="1" pageScale="1" pageWidth="1169" pageHeight="827" math="0" shadow="0">
      <root>
        <mxCell id="0" />
        <mxCell id="1" parent="0" />
        <mxCell id="-Ex6V4VzKUpp66V6dFCf-5" value="准备安装介质&lt;br&gt;(使用U盘)" style="rounded=1;whiteSpace=wrap;html=1;" parent="1" vertex="1">
          <mxGeometry x="170" y="210" width="120" height="60" as="geometry" />
        </mxCell>
        <mxCell id="-Ex6V4VzKUpp66V6dFCf-6" value="BIOS启动和UEFI启动" style="rounded=1;whiteSpace=wrap;html=1;" parent="1" vertex="1">
          <mxGeometry x="350" y="210" width="120" height="60" as="geometry" />
        </mxCell>
        <mxCell id="-Ex6V4VzKUpp66V6dFCf-9" value="" style="edgeStyle=orthogonalEdgeStyle;rounded=0;orthogonalLoop=1;jettySize=auto;html=1;" parent="1" source="-Ex6V4VzKUpp66V6dFCf-7" target="-Ex6V4VzKUpp66V6dFCf-8" edge="1">
          <mxGeometry relative="1" as="geometry" />
        </mxCell>
        <mxCell id="-Ex6V4VzKUpp66V6dFCf-7" value="&lt;font style=&quot;font-size: 14px;&quot;&gt;开机&lt;/font&gt;" style="rounded=1;whiteSpace=wrap;html=1;fillColor=#fff2cc;strokeColor=#d6b656;" parent="1" vertex="1">
          <mxGeometry x="100" y="460" width="120" height="60" as="geometry" />
        </mxCell>
        <mxCell id="-Ex6V4VzKUpp66V6dFCf-11" value="" style="edgeStyle=orthogonalEdgeStyle;rounded=0;orthogonalLoop=1;jettySize=auto;html=1;" parent="1" source="-Ex6V4VzKUpp66V6dFCf-8" target="-Ex6V4VzKUpp66V6dFCf-10" edge="1">
          <mxGeometry relative="1" as="geometry" />
        </mxCell>
        <mxCell id="-Ex6V4VzKUpp66V6dFCf-8" value="&lt;font style=&quot;font-size: 14px;&quot;&gt;BIOS初始化&lt;/font&gt;" style="rounded=1;whiteSpace=wrap;html=1;fillColor=#fff2cc;strokeColor=#d6b656;" parent="1" vertex="1">
          <mxGeometry x="300" y="460" width="120" height="60" as="geometry" />
        </mxCell>
        <mxCell id="-Ex6V4VzKUpp66V6dFCf-13" value="" style="edgeStyle=orthogonalEdgeStyle;rounded=0;orthogonalLoop=1;jettySize=auto;html=1;" parent="1" source="-Ex6V4VzKUpp66V6dFCf-10" target="-Ex6V4VzKUpp66V6dFCf-12" edge="1">
          <mxGeometry relative="1" as="geometry" />
        </mxCell>
        <mxCell id="-Ex6V4VzKUpp66V6dFCf-10" value="&lt;font style=&quot;font-size: 14px;&quot;&gt;BIOS自检&lt;/font&gt;" style="rounded=1;whiteSpace=wrap;html=1;fillColor=#fff2cc;strokeColor=#d6b656;" parent="1" vertex="1">
          <mxGeometry x="500" y="460" width="120" height="60" as="geometry" />
        </mxCell>
        <mxCell id="-Ex6V4VzKUpp66V6dFCf-15" value="" style="edgeStyle=orthogonalEdgeStyle;rounded=0;orthogonalLoop=1;jettySize=auto;html=1;" parent="1" source="-Ex6V4VzKUpp66V6dFCf-12" target="-Ex6V4VzKUpp66V6dFCf-14" edge="1">
          <mxGeometry relative="1" as="geometry" />
        </mxCell>
        <mxCell id="-Ex6V4VzKUpp66V6dFCf-12" value="&lt;font style=&quot;font-size: 14px;&quot;&gt;引导操作系统&lt;/font&gt;" style="rounded=1;whiteSpace=wrap;html=1;fillColor=#fff2cc;strokeColor=#d6b656;" parent="1" vertex="1">
          <mxGeometry x="700" y="460" width="120" height="60" as="geometry" />
        </mxCell>
        <mxCell id="-Ex6V4VzKUpp66V6dFCf-14" value="&lt;font style=&quot;font-size: 14px;&quot;&gt;进入系统&lt;/font&gt;" style="rounded=1;whiteSpace=wrap;html=1;fillColor=#fff2cc;strokeColor=#d6b656;" parent="1" vertex="1">
          <mxGeometry x="900" y="460" width="120" height="60" as="geometry" />
        </mxCell>
        <mxCell id="-Ex6V4VzKUpp66V6dFCf-18" value="" style="edgeStyle=orthogonalEdgeStyle;rounded=0;orthogonalLoop=1;jettySize=auto;html=1;" parent="1" source="-Ex6V4VzKUpp66V6dFCf-16" target="-Ex6V4VzKUpp66V6dFCf-17" edge="1">
          <mxGeometry relative="1" as="geometry" />
        </mxCell>
        <mxCell id="-Ex6V4VzKUpp66V6dFCf-16" value="&lt;font style=&quot;font-size: 14px;&quot;&gt;开机&lt;/font&gt;" style="rounded=1;whiteSpace=wrap;html=1;fillColor=#fff2cc;strokeColor=#d6b656;" parent="1" vertex="1">
          <mxGeometry x="100" y="610" width="120" height="60" as="geometry" />
        </mxCell>
        <mxCell id="-Ex6V4VzKUpp66V6dFCf-20" value="" style="edgeStyle=orthogonalEdgeStyle;rounded=0;orthogonalLoop=1;jettySize=auto;html=1;" parent="1" source="-Ex6V4VzKUpp66V6dFCf-17" target="-Ex6V4VzKUpp66V6dFCf-19" edge="1">
          <mxGeometry relative="1" as="geometry" />
        </mxCell>
        <mxCell id="-Ex6V4VzKUpp66V6dFCf-17" value="&lt;font style=&quot;font-size: 14px;&quot;&gt;UEFI初始化&lt;/font&gt;" style="rounded=1;whiteSpace=wrap;html=1;fillColor=#fff2cc;strokeColor=#d6b656;" parent="1" vertex="1">
          <mxGeometry x="300" y="610" width="120" height="60" as="geometry" />
        </mxCell>
        <mxCell id="-Ex6V4VzKUpp66V6dFCf-22" value="" style="edgeStyle=orthogonalEdgeStyle;rounded=0;orthogonalLoop=1;jettySize=auto;html=1;" parent="1" source="-Ex6V4VzKUpp66V6dFCf-19" target="-Ex6V4VzKUpp66V6dFCf-21" edge="1">
          <mxGeometry relative="1" as="geometry" />
        </mxCell>
        <mxCell id="-Ex6V4VzKUpp66V6dFCf-19" value="&lt;font style=&quot;font-size: 14px;&quot;&gt;引导操作系统&lt;/font&gt;" style="rounded=1;whiteSpace=wrap;html=1;fillColor=#fff2cc;strokeColor=#d6b656;" parent="1" vertex="1">
          <mxGeometry x="500" y="610" width="120" height="60" as="geometry" />
        </mxCell>
        <mxCell id="-Ex6V4VzKUpp66V6dFCf-21" value="&lt;font style=&quot;font-size: 14px;&quot;&gt;进入系统&lt;/font&gt;" style="rounded=1;whiteSpace=wrap;html=1;fillColor=#fff2cc;strokeColor=#d6b656;" parent="1" vertex="1">
          <mxGeometry x="700" y="610" width="120" height="60" as="geometry" />
        </mxCell>
        <mxCell id="-Ex6V4VzKUpp66V6dFCf-24" value="&lt;h1&gt;Legacy BIOS启动&lt;/h1&gt;&lt;i&gt;基本输入/输出系统启动。&lt;/i&gt;&lt;br&gt;&lt;br&gt;1.BIOS会&lt;b&gt;按照固定的顺序搜索连接到计算机的存储设备&lt;/b&gt;（如硬盘、光盘、USB设备等），以找到包含操作系统引导加载程序的有效启动设备。&lt;br&gt;2.一旦找到引导加载程序，BIOS会将控制权转移给它，然后引导加载程序将加载操作系统内核，最终启动计算机。" style="text;html=1;strokeColor=none;fillColor=none;spacing=5;spacingTop=-20;whiteSpace=wrap;overflow=hidden;rounded=0;" parent="1" vertex="1">
          <mxGeometry x="-150" y="330" width="210" height="210" as="geometry" />
        </mxCell>
        <mxCell id="-Ex6V4VzKUpp66V6dFCf-25" value="&lt;h1&gt;UEFI BIOS启动&lt;/h1&gt;&lt;div&gt;&lt;i&gt;统一可扩展固件接口启动。&lt;/i&gt;&lt;br&gt;&lt;/div&gt;&lt;p&gt;&lt;/p&gt;1.&lt;b&gt;提供了更为现代化和灵活的图形化界面。&lt;/b&gt;&lt;br&gt;2.&lt;b&gt;支持更大的硬盘容量和更快的启动速度。&lt;br&gt;3.UEFI提供了更多的安全功能，例如安全引导。&lt;br&gt;&lt;/b&gt;" style="text;html=1;strokeColor=none;fillColor=none;spacing=5;spacingTop=-20;whiteSpace=wrap;overflow=hidden;rounded=0;" parent="1" vertex="1">
          <mxGeometry x="-150" y="550" width="200" height="180" as="geometry" />
        </mxCell>
        <mxCell id="-Ex6V4VzKUpp66V6dFCf-29" value="&lt;h1&gt;分区表&lt;/h1&gt;&lt;p&gt;&lt;b&gt;1.GPT(GUID分区表): &lt;/b&gt;更为现代化和灵活的分区表格式。基于全局唯一标识符(GUID)进行分区标识。通常用于UEFI启动发计算机系统。&lt;/p&gt;&lt;p&gt;&lt;b&gt;2.MBR(主引导分区): &lt;/b&gt;传统的分区表格式。&lt;/p&gt;" style="text;html=1;strokeColor=none;fillColor=none;spacing=5;spacingTop=-20;whiteSpace=wrap;overflow=hidden;rounded=0;" parent="1" vertex="1">
          <mxGeometry x="-150" y="790" width="195" height="150" as="geometry" />
        </mxCell>
        <mxCell id="-Ex6V4VzKUpp66V6dFCf-32" value="" style="edgeStyle=orthogonalEdgeStyle;rounded=0;orthogonalLoop=1;jettySize=auto;html=1;" parent="1" source="-Ex6V4VzKUpp66V6dFCf-30" target="-Ex6V4VzKUpp66V6dFCf-31" edge="1">
          <mxGeometry relative="1" as="geometry" />
        </mxCell>
        <mxCell id="-Ex6V4VzKUpp66V6dFCf-30" value="&lt;font style=&quot;font-size: 14px;&quot;&gt;新建分区表并分区&lt;/font&gt;" style="rounded=1;whiteSpace=wrap;html=1;fillColor=#ffe6cc;strokeColor=#d79b00;" parent="1" vertex="1">
          <mxGeometry x="120" y="827" width="120" height="60" as="geometry" />
        </mxCell>
        <mxCell id="-Ex6V4VzKUpp66V6dFCf-34" value="" style="edgeStyle=orthogonalEdgeStyle;rounded=0;orthogonalLoop=1;jettySize=auto;html=1;" parent="1" source="-Ex6V4VzKUpp66V6dFCf-31" target="-Ex6V4VzKUpp66V6dFCf-33" edge="1">
          <mxGeometry relative="1" as="geometry" />
        </mxCell>
        <mxCell id="-Ex6V4VzKUpp66V6dFCf-31" value="&lt;font style=&quot;font-size: 14px;&quot;&gt;修改分区类型&lt;/font&gt;" style="rounded=1;whiteSpace=wrap;html=1;fillColor=#ffe6cc;strokeColor=#d79b00;" parent="1" vertex="1">
          <mxGeometry x="320" y="827" width="120" height="60" as="geometry" />
        </mxCell>
        <mxCell id="-Ex6V4VzKUpp66V6dFCf-36" value="" style="edgeStyle=orthogonalEdgeStyle;rounded=0;orthogonalLoop=1;jettySize=auto;html=1;" parent="1" source="-Ex6V4VzKUpp66V6dFCf-33" target="-Ex6V4VzKUpp66V6dFCf-35" edge="1">
          <mxGeometry relative="1" as="geometry" />
        </mxCell>
        <mxCell id="-Ex6V4VzKUpp66V6dFCf-33" value="&lt;font style=&quot;font-size: 14px;&quot;&gt;写入磁盘&lt;/font&gt;" style="rounded=1;whiteSpace=wrap;html=1;fillColor=#ffe6cc;strokeColor=#d79b00;" parent="1" vertex="1">
          <mxGeometry x="520" y="827" width="120" height="60" as="geometry" />
        </mxCell>
        <mxCell id="-Ex6V4VzKUpp66V6dFCf-38" value="" style="edgeStyle=orthogonalEdgeStyle;rounded=0;orthogonalLoop=1;jettySize=auto;html=1;" parent="1" source="-Ex6V4VzKUpp66V6dFCf-35" target="-Ex6V4VzKUpp66V6dFCf-37" edge="1">
          <mxGeometry relative="1" as="geometry" />
        </mxCell>
        <mxCell id="-Ex6V4VzKUpp66V6dFCf-35" value="&lt;font style=&quot;font-size: 14px;&quot;&gt;格式化分区&lt;/font&gt;" style="rounded=1;whiteSpace=wrap;html=1;fillColor=#ffe6cc;strokeColor=#d79b00;" parent="1" vertex="1">
          <mxGeometry x="520" y="940" width="120" height="60" as="geometry" />
        </mxCell>
        <mxCell id="-Ex6V4VzKUpp66V6dFCf-40" value="" style="edgeStyle=orthogonalEdgeStyle;rounded=0;orthogonalLoop=1;jettySize=auto;html=1;" parent="1" source="-Ex6V4VzKUpp66V6dFCf-37" target="-Ex6V4VzKUpp66V6dFCf-39" edge="1">
          <mxGeometry relative="1" as="geometry" />
        </mxCell>
        <mxCell id="-Ex6V4VzKUpp66V6dFCf-37" value="&lt;font style=&quot;font-size: 14px;&quot;&gt;启用交换分区&lt;/font&gt;" style="rounded=1;whiteSpace=wrap;html=1;fillColor=#ffe6cc;strokeColor=#d79b00;" parent="1" vertex="1">
          <mxGeometry x="320" y="940" width="120" height="60" as="geometry" />
        </mxCell>
        <mxCell id="-Ex6V4VzKUpp66V6dFCf-39" value="&lt;font style=&quot;font-size: 14px;&quot;&gt;挂载分区&lt;/font&gt;" style="rounded=1;whiteSpace=wrap;html=1;fillColor=#ffe6cc;strokeColor=#d79b00;" parent="1" vertex="1">
          <mxGeometry x="120" y="940" width="120" height="60" as="geometry" />
        </mxCell>
      </root>
    </mxGraphModel>
  </diagram>
  <diagram id="kPDhBSvx5hLOh4wXyOgT" name="第 4 页">
    <mxGraphModel dx="2129" dy="716" grid="1" gridSize="10" guides="1" tooltips="1" connect="1" arrows="1" fold="1" page="1" pageScale="1" pageWidth="827" pageHeight="1169" math="0" shadow="0">
      <root>
        <mxCell id="0" />
        <mxCell id="1" parent="0" />
        <mxCell id="49N6O5uPaqqjNNdAKAQc-22" value="" style="whiteSpace=wrap;html=1;aspect=fixed;" vertex="1" parent="1">
          <mxGeometry x="360" y="50" width="340" height="340" as="geometry" />
        </mxCell>
        <mxCell id="49N6O5uPaqqjNNdAKAQc-18" value="" style="whiteSpace=wrap;html=1;aspect=fixed;" vertex="1" parent="1">
          <mxGeometry x="-240" y="50" width="340" height="340" as="geometry" />
        </mxCell>
        <mxCell id="49N6O5uPaqqjNNdAKAQc-1" value="~/.config/hypr/" style="rounded=0;whiteSpace=wrap;html=1;" vertex="1" parent="1">
          <mxGeometry x="540" y="600" width="120" height="60" as="geometry" />
        </mxCell>
        <mxCell id="49N6O5uPaqqjNNdAKAQc-16" style="edgeStyle=orthogonalEdgeStyle;rounded=0;orthogonalLoop=1;jettySize=auto;html=1;exitX=0.5;exitY=1;exitDx=0;exitDy=0;entryX=0.5;entryY=0;entryDx=0;entryDy=0;" edge="1" parent="1" source="49N6O5uPaqqjNNdAKAQc-2" target="49N6O5uPaqqjNNdAKAQc-4">
          <mxGeometry relative="1" as="geometry" />
        </mxCell>
        <mxCell id="49N6O5uPaqqjNNdAKAQc-2" value="~/.config/waybar/" style="rounded=0;whiteSpace=wrap;html=1;" vertex="1" parent="1">
          <mxGeometry x="-70" y="80" width="120" height="60" as="geometry" />
        </mxCell>
        <mxCell id="49N6O5uPaqqjNNdAKAQc-3" value="~/.localshare/bin/" style="rounded=0;whiteSpace=wrap;html=1;" vertex="1" parent="1">
          <mxGeometry x="540" y="510" width="120" height="60" as="geometry" />
        </mxCell>
        <mxCell id="49N6O5uPaqqjNNdAKAQc-4" value="List" style="swimlane;fontStyle=0;childLayout=stackLayout;horizontal=1;startSize=30;horizontalStack=0;resizeParent=1;resizeParentMax=0;resizeLast=0;collapsible=1;marginBottom=0;whiteSpace=wrap;html=1;" vertex="1" parent="1">
          <mxGeometry x="-80" y="170" width="140" height="120" as="geometry" />
        </mxCell>
        <mxCell id="49N6O5uPaqqjNNdAKAQc-9" style="edgeStyle=orthogonalEdgeStyle;rounded=0;orthogonalLoop=1;jettySize=auto;html=1;exitX=0;exitY=0.5;exitDx=0;exitDy=0;entryX=0;entryY=0.5;entryDx=0;entryDy=0;" edge="1" parent="49N6O5uPaqqjNNdAKAQc-4" source="49N6O5uPaqqjNNdAKAQc-5" target="49N6O5uPaqqjNNdAKAQc-7">
          <mxGeometry relative="1" as="geometry" />
        </mxCell>
        <mxCell id="49N6O5uPaqqjNNdAKAQc-5" value="modules/" style="text;strokeColor=none;fillColor=none;align=left;verticalAlign=middle;spacingLeft=4;spacingRight=4;overflow=hidden;points=[[0,0.5],[1,0.5]];portConstraint=eastwest;rotatable=0;whiteSpace=wrap;html=1;" vertex="1" parent="49N6O5uPaqqjNNdAKAQc-4">
          <mxGeometry y="30" width="140" height="30" as="geometry" />
        </mxCell>
        <mxCell id="49N6O5uPaqqjNNdAKAQc-6" value="style.css" style="text;strokeColor=none;fillColor=none;align=left;verticalAlign=middle;spacingLeft=4;spacingRight=4;overflow=hidden;points=[[0,0.5],[1,0.5]];portConstraint=eastwest;rotatable=0;whiteSpace=wrap;html=1;" vertex="1" parent="49N6O5uPaqqjNNdAKAQc-4">
          <mxGeometry y="60" width="140" height="30" as="geometry" />
        </mxCell>
        <mxCell id="49N6O5uPaqqjNNdAKAQc-7" value="config.jsonc" style="text;strokeColor=none;fillColor=none;align=left;verticalAlign=middle;spacingLeft=4;spacingRight=4;overflow=hidden;points=[[0,0.5],[1,0.5]];portConstraint=eastwest;rotatable=0;whiteSpace=wrap;html=1;" vertex="1" parent="49N6O5uPaqqjNNdAKAQc-4">
          <mxGeometry y="90" width="140" height="30" as="geometry" />
        </mxCell>
        <mxCell id="49N6O5uPaqqjNNdAKAQc-11" value="$scrPath/wbarconfgen.sh" style="text;html=1;align=center;verticalAlign=middle;whiteSpace=wrap;rounded=0;" vertex="1" parent="1">
          <mxGeometry x="-200" y="215" width="60" height="30" as="geometry" />
        </mxCell>
        <mxCell id="49N6O5uPaqqjNNdAKAQc-13" value="&lt;div&gt;$scrDir/wbarstylegen.sh&lt;/div&gt;&lt;div&gt;&lt;br&gt;&lt;/div&gt;" style="text;html=1;align=center;verticalAlign=middle;whiteSpace=wrap;rounded=0;" vertex="1" parent="1">
          <mxGeometry x="-200" y="250" width="60" height="30" as="geometry" />
        </mxCell>
        <mxCell id="49N6O5uPaqqjNNdAKAQc-17" value=".config/rofi/" style="rounded=0;whiteSpace=wrap;html=1;" vertex="1" parent="1">
          <mxGeometry x="570" y="80" width="120" height="60" as="geometry" />
        </mxCell>
        <mxCell id="49N6O5uPaqqjNNdAKAQc-19" value="bar" style="rounded=0;whiteSpace=wrap;html=1;" vertex="1" parent="1">
          <mxGeometry x="-180" y="360" width="240" height="30" as="geometry" />
        </mxCell>
        <mxCell id="49N6O5uPaqqjNNdAKAQc-23" value="application launch / menus" style="rounded=0;whiteSpace=wrap;html=1;" vertex="1" parent="1">
          <mxGeometry x="420" y="360" width="240" height="30" as="geometry" />
        </mxCell>
        <mxCell id="49N6O5uPaqqjNNdAKAQc-24" value="$srcPath/rofilaunch.sh" style="text;html=1;align=center;verticalAlign=middle;whiteSpace=wrap;rounded=0;" vertex="1" parent="1">
          <mxGeometry x="430" y="140" width="60" height="30" as="geometry" />
        </mxCell>
        <mxCell id="49N6O5uPaqqjNNdAKAQc-25" value="$srcPath/wallbashtoggle.sh" style="text;html=1;align=center;verticalAlign=middle;whiteSpace=wrap;rounded=0;" vertex="1" parent="1">
          <mxGeometry x="435" y="170" width="50" height="30" as="geometry" />
        </mxCell>
        <mxCell id="49N6O5uPaqqjNNdAKAQc-26" value="$scrPath/themeselect.sh&amp;nbsp;" style="text;html=1;align=center;verticalAlign=middle;whiteSpace=wrap;rounded=0;" vertex="1" parent="1">
          <mxGeometry x="430" y="200" width="60" height="30" as="geometry" />
        </mxCell>
        <mxCell id="49N6O5uPaqqjNNdAKAQc-27" value="$scrPath/rofiselect.sh&amp;nbsp;" style="text;html=1;align=center;verticalAlign=middle;whiteSpace=wrap;rounded=0;" vertex="1" parent="1">
          <mxGeometry x="430" y="230" width="60" height="30" as="geometry" />
        </mxCell>
        <mxCell id="49N6O5uPaqqjNNdAKAQc-28" value="$scrPath/swwwallselect.sh&amp;nbsp;" style="text;html=1;align=center;verticalAlign=middle;whiteSpace=wrap;rounded=0;" vertex="1" parent="1">
          <mxGeometry x="430" y="260" width="60" height="30" as="geometry" />
        </mxCell>
        <mxCell id="49N6O5uPaqqjNNdAKAQc-29" value="&amp;nbsp;$scrPath/cliphist.sh&amp;nbsp;" style="text;html=1;align=center;verticalAlign=middle;whiteSpace=wrap;rounded=0;" vertex="1" parent="1">
          <mxGeometry x="430" y="290" width="60" height="30" as="geometry" />
        </mxCell>
        <mxCell id="49N6O5uPaqqjNNdAKAQc-32" value="$scrPath/keybinds_hint.sh&amp;nbsp;" style="text;html=1;align=center;verticalAlign=middle;whiteSpace=wrap;rounded=0;" vertex="1" parent="1">
          <mxGeometry x="430" y="320" width="60" height="30" as="geometry" />
        </mxCell>
      </root>
    </mxGraphModel>
  </diagram>
</mxfile>
